<svg id="svg" version="1.1" xmlns="http://www.w3.org/2000/svg" xmlns:xlink="http://www.w3.org/1999/xlink" width="400" height="400" viewBox="0, 0, 400,400"><g id="svgg"><path id="path0" d="M136.200 165.071 C 128.817 165.913,120.181 168.092,114.904 170.444 C 113.972 170.860,113.104 171.200,112.976 171.200 C 111.417 171.200,107.496 175.135,106.891 177.307 C 106.479 178.787,106.112 179.174,103.976 180.387 C 101.398 181.851,96.981 186.211,96.046 188.214 C 94.123 192.335,93.523 197.072,94.411 201.123 C 94.638 202.155,95.011 203.900,95.241 205.000 C 96.785 212.378,103.007 223.033,108.366 227.475 C 121.126 238.052,151.994 238.292,164.469 227.911 C 166.582 226.153,170.800 220.578,170.800 219.544 C 170.800 219.350,171.142 218.428,171.560 217.496 C 171.978 216.563,172.440 215.350,172.587 214.800 C 172.734 214.250,173.027 213.170,173.238 212.400 C 173.871 210.088,174.405 207.173,174.776 204.000 C 174.969 202.350,175.260 199.866,175.423 198.480 C 175.826 195.040,173.724 187.384,171.997 186.000 C 171.859 185.890,171.195 184.990,170.520 184.000 C 169.073 181.876,161.488 174.452,159.667 173.376 C 158.970 172.964,158.400 172.486,158.400 172.314 C 158.400 172.141,158.201 172.000,157.958 172.000 C 157.715 172.000,157.008 171.573,156.388 171.051 C 151.842 167.226,142.240 164.382,136.200 165.071 M266.600 165.085 C 262.428 165.434,252.519 167.717,248.500 169.255 C 246.214 170.131,245.674 170.357,243.800 171.226 C 241.053 172.500,237.600 176.029,237.600 177.562 C 237.600 178.546,237.278 178.906,235.500 179.912 C 232.661 181.518,229.939 183.827,228.324 186.000 C 227.031 187.740,226.653 188.436,225.613 191.000 C 225.012 192.481,224.989 202.459,225.584 203.571 C 225.813 203.998,226.000 204.799,226.000 205.350 C 226.000 205.902,226.180 206.464,226.400 206.600 C 226.620 206.736,226.800 207.276,226.800 207.800 C 226.800 208.324,226.980 208.864,227.200 209.000 C 227.420 209.136,227.600 209.552,227.601 209.924 C 227.603 211.896,233.301 221.491,236.667 225.189 C 244.247 233.519,259.184 237.064,277.000 234.763 C 293.684 232.608,301.724 225.195,304.725 209.200 C 305.842 203.247,306.000 201.835,306.000 197.774 C 306.000 191.069,304.268 186.997,298.939 181.174 C 295.721 177.658,295.213 177.163,293.488 175.873 C 292.660 175.253,291.544 174.308,291.009 173.773 C 290.474 173.238,289.893 172.800,289.718 172.800 C 289.543 172.799,288.860 172.333,288.200 171.762 C 282.881 167.167,274.115 164.458,266.600 165.085 M141.304 175.401 C 142.131 175.559,142.906 175.849,143.027 176.044 C 143.148 176.240,143.676 176.400,144.200 176.400 C 144.724 176.400,145.264 176.580,145.400 176.800 C 145.536 177.020,145.902 177.200,146.214 177.200 C 146.785 177.200,150.729 178.895,153.938 180.520 C 168.723 188.006,171.086 213.582,157.658 220.769 C 156.237 221.530,155.640 221.244,154.801 219.401 C 153.002 215.453,152.935 215.219,151.215 206.784 C 149.514 198.442,148.237 195.516,144.934 192.393 C 140.252 187.965,133.180 185.954,126.720 187.213 C 123.897 187.763,121.487 188.463,121.020 188.870 C 120.811 189.051,120.399 189.200,120.105 189.200 C 119.084 189.200,112.583 193.919,109.100 197.187 C 107.175 198.994,105.600 200.259,105.600 199.999 C 105.600 199.223,110.849 188.800,111.240 188.800 C 111.438 188.800,111.600 188.530,111.600 188.200 C 111.600 187.870,111.740 187.600,111.911 187.600 C 112.560 187.600,119.005 182.495,123.033 178.790 C 124.371 177.559,126.081 176.323,126.833 176.043 C 127.585 175.763,128.470 175.374,128.800 175.179 C 129.468 174.783,138.955 174.951,141.304 175.401 M271.903 175.406 C 272.839 175.559,273.705 175.845,273.826 176.042 C 273.948 176.239,274.399 176.400,274.829 176.400 C 275.259 176.400,275.923 176.559,276.305 176.753 C 276.687 176.948,277.450 177.285,278.000 177.503 C 286.491 180.865,291.120 184.277,293.687 189.066 C 297.657 196.473,298.392 207.761,295.298 213.811 C 293.807 216.727,288.794 221.200,287.016 221.200 C 285.871 221.200,283.736 215.671,282.614 209.800 C 280.967 201.180,280.725 200.322,278.833 196.400 C 277.918 194.502,275.541 191.600,274.901 191.600 C 274.694 191.600,274.222 191.266,273.852 190.858 C 270.346 186.984,259.176 185.703,252.904 188.456 C 251.972 188.865,251.019 189.200,250.786 189.200 C 249.636 189.200,243.666 193.676,239.647 197.553 C 236.296 200.785,236.062 200.170,238.632 194.891 C 241.329 189.351,242.435 187.900,245.917 185.337 C 248.448 183.474,252.950 179.708,255.514 177.310 C 255.802 177.040,256.614 176.570,257.319 176.264 C 258.023 175.959,259.050 175.511,259.600 175.270 C 260.650 174.809,268.805 174.899,271.903 175.406 " stroke="none" fill="#acacac" fill-rule="evenodd"></path><path id="path1" d="M30.100 0.291 C 29.165 0.376,28.400 0.616,28.400 0.823 C 28.400 1.030,27.961 1.200,27.424 1.200 C 26.887 1.200,26.336 1.380,26.200 1.600 C 26.064 1.820,25.513 2.000,24.976 2.000 C 24.439 2.000,24.000 2.180,24.000 2.400 C 24.000 2.620,23.640 2.800,23.200 2.800 C 22.760 2.800,22.400 2.980,22.400 3.200 C 22.400 3.420,22.040 3.600,21.600 3.600 C 21.160 3.600,20.800 3.780,20.800 4.000 C 20.800 4.220,20.480 4.400,20.088 4.400 C 19.697 4.400,19.117 4.760,18.800 5.200 C 18.483 5.640,17.943 6.000,17.600 6.000 C 17.257 6.000,16.717 6.360,16.400 6.800 C 16.083 7.240,15.594 7.600,15.315 7.600 C 14.143 7.600,7.600 14.143,7.600 15.315 C 7.600 15.594,7.240 16.083,6.800 16.400 C 6.360 16.717,6.000 17.257,6.000 17.600 C 6.000 17.943,5.640 18.483,5.200 18.800 C 4.760 19.117,4.400 19.697,4.400 20.088 C 4.400 20.480,4.220 20.800,4.000 20.800 C 3.780 20.800,3.600 21.160,3.600 21.600 C 3.600 22.040,3.420 22.400,3.200 22.400 C 2.980 22.400,2.800 22.760,2.800 23.200 C 2.800 23.640,2.620 24.000,2.400 24.000 C 2.180 24.000,2.000 24.439,2.000 24.976 C 2.000 25.513,1.820 26.064,1.600 26.200 C 1.380 26.336,1.200 26.872,1.200 27.390 C 1.200 27.909,0.975 28.408,0.700 28.500 C -0.036 28.745,-0.036 371.255,0.700 371.500 C 0.975 371.592,1.200 372.091,1.200 372.610 C 1.200 373.128,1.380 373.664,1.600 373.800 C 1.820 373.936,2.000 374.487,2.000 375.024 C 2.000 375.561,2.180 376.000,2.400 376.000 C 2.620 376.000,2.800 376.360,2.800 376.800 C 2.800 377.240,2.980 377.600,3.200 377.600 C 3.420 377.600,3.600 377.960,3.600 378.400 C 3.600 378.840,3.780 379.200,4.000 379.200 C 4.220 379.200,4.400 379.520,4.400 379.912 C 4.400 380.303,4.760 380.883,5.200 381.200 C 5.640 381.517,6.000 382.057,6.000 382.400 C 6.000 382.743,6.360 383.283,6.800 383.600 C 7.240 383.917,7.600 384.406,7.600 384.685 C 7.600 385.857,14.143 392.400,15.315 392.400 C 15.594 392.400,16.083 392.760,16.400 393.200 C 16.717 393.640,17.257 394.000,17.600 394.000 C 17.943 394.000,18.483 394.360,18.800 394.800 C 19.117 395.240,19.697 395.600,20.088 395.600 C 20.480 395.600,20.800 395.780,20.800 396.000 C 20.800 396.220,21.160 396.400,21.600 396.400 C 22.040 396.400,22.400 396.580,22.400 396.800 C 22.400 397.020,22.760 397.200,23.200 397.200 C 23.640 397.200,24.000 397.380,24.000 397.600 C 24.000 397.820,24.439 398.000,24.976 398.000 C 25.513 398.000,26.064 398.180,26.200 398.400 C 26.336 398.620,26.872 398.800,27.390 398.800 C 27.909 398.800,28.408 399.025,28.500 399.300 C 28.745 400.036,371.255 400.036,371.500 399.300 C 371.592 399.025,372.091 398.800,372.610 398.800 C 373.128 398.800,373.664 398.620,373.800 398.400 C 373.936 398.180,374.487 398.000,375.024 398.000 C 375.561 398.000,376.000 397.820,376.000 397.600 C 376.000 397.380,376.360 397.200,376.800 397.200 C 377.240 397.200,377.600 397.020,377.600 396.800 C 377.600 396.580,377.960 396.400,378.400 396.400 C 378.840 396.400,379.200 396.220,379.200 396.000 C 379.200 395.780,379.520 395.600,379.912 395.600 C 380.303 395.600,380.883 395.240,381.200 394.800 C 381.517 394.360,382.057 394.000,382.400 394.000 C 382.743 394.000,383.283 393.640,383.600 393.200 C 383.917 392.760,384.406 392.400,384.685 392.400 C 385.857 392.400,392.400 385.857,392.400 384.685 C 392.400 384.406,392.760 383.917,393.200 383.600 C 393.640 383.283,394.000 382.743,394.000 382.400 C 394.000 382.057,394.360 381.517,394.800 381.200 C 395.240 380.883,395.600 380.303,395.600 379.912 C 395.600 379.520,395.780 379.200,396.000 379.200 C 396.220 379.200,396.400 378.840,396.400 378.400 C 396.400 377.960,396.580 377.600,396.800 377.600 C 397.020 377.600,397.200 377.240,397.200 376.800 C 397.200 376.360,397.380 376.000,397.600 376.000 C 397.820 376.000,398.000 375.561,398.000 375.024 C 398.000 374.487,398.180 373.936,398.400 373.800 C 398.620 373.664,398.800 373.128,398.800 372.610 C 398.800 372.091,399.025 371.592,399.300 371.500 C 400.036 371.255,400.036 28.745,399.300 28.500 C 399.025 28.408,398.800 27.909,398.800 27.390 C 398.800 26.872,398.620 26.336,398.400 26.200 C 398.180 26.064,398.000 25.513,398.000 24.976 C 398.000 24.439,397.820 24.000,397.600 24.000 C 397.380 24.000,397.200 23.640,397.200 23.200 C 397.200 22.760,397.020 22.400,396.800 22.400 C 396.580 22.400,396.400 22.040,396.400 21.600 C 396.400 21.160,396.220 20.800,396.000 20.800 C 395.780 20.800,395.600 20.480,395.600 20.088 C 395.600 19.697,395.240 19.117,394.800 18.800 C 394.360 18.483,394.000 17.943,394.000 17.600 C 394.000 17.257,393.640 16.717,393.200 16.400 C 392.760 16.083,392.400 15.594,392.400 15.315 C 392.400 14.143,385.857 7.600,384.685 7.600 C 384.406 7.600,383.917 7.240,383.600 6.800 C 383.283 6.360,382.743 6.000,382.400 6.000 C 382.057 6.000,381.517 5.640,381.200 5.200 C 380.883 4.760,380.303 4.400,379.912 4.400 C 379.520 4.400,379.200 4.220,379.200 4.000 C 379.200 3.780,378.840 3.600,378.400 3.600 C 377.960 3.600,377.600 3.420,377.600 3.200 C 377.600 2.980,377.240 2.800,376.800 2.800 C 376.360 2.800,376.000 2.620,376.000 2.400 C 376.000 2.180,375.561 2.000,375.024 2.000 C 374.487 2.000,373.936 1.820,373.800 1.600 C 373.664 1.380,373.128 1.200,372.610 1.200 C 372.091 1.200,371.592 0.975,371.500 0.700 C 371.343 0.229,35.199 -0.174,30.100 0.291 M142.856 164.787 C 148.031 165.452,156.435 169.239,158.800 171.971 C 158.910 172.098,160.069 173.012,161.375 174.001 C 166.215 177.668,172.338 184.514,173.841 187.940 C 175.889 192.609,176.113 193.817,175.861 198.842 C 175.576 204.534,174.953 208.945,174.004 212.000 C 173.833 212.550,173.469 213.810,173.195 214.800 C 171.267 221.765,166.368 228.305,161.000 231.080 C 154.499 234.440,146.700 236.000,136.400 236.000 C 118.870 236.000,108.736 231.492,101.562 220.503 C 99.422 217.225,96.000 210.425,96.000 209.450 C 96.000 209.119,95.820 208.736,95.600 208.600 C 95.380 208.464,95.200 207.924,95.200 207.400 C 95.200 206.876,95.039 206.348,94.842 206.226 C 93.926 205.660,93.268 194.309,94.006 191.817 C 94.842 188.994,96.380 186.156,98.200 184.074 C 99.359 182.749,104.821 178.800,105.495 178.800 C 105.677 178.800,106.059 178.010,106.344 177.044 C 107.313 173.761,110.200 171.527,116.737 169.003 C 122.568 166.751,135.899 163.888,138.800 164.264 C 139.350 164.336,141.175 164.571,142.856 164.787 M274.000 164.806 C 277.707 165.377,278.475 165.620,282.200 167.401 C 290.171 171.212,304.800 184.745,304.800 188.307 C 304.800 188.495,305.202 189.449,305.693 190.425 C 306.702 192.430,306.947 201.831,306.095 205.822 C 305.862 206.910,305.453 208.880,305.186 210.200 C 303.064 220.684,298.144 227.963,290.800 231.486 C 283.977 234.759,277.435 236.000,267.000 236.000 C 246.321 236.000,234.965 229.104,227.810 212.200 C 227.438 211.320,226.968 210.287,226.766 209.905 C 226.565 209.523,226.400 208.859,226.400 208.429 C 226.400 207.999,226.220 207.536,226.000 207.400 C 225.780 207.264,225.600 206.634,225.600 206.000 C 225.600 205.366,225.420 204.736,225.200 204.600 C 224.980 204.464,224.800 203.799,224.800 203.123 C 224.800 202.446,224.590 200.752,224.333 199.359 C 223.022 192.245,226.786 184.817,234.118 180.050 C 235.966 178.849,236.892 177.970,237.070 177.250 C 237.357 176.093,239.148 173.200,239.578 173.200 C 239.727 173.200,240.215 172.859,240.662 172.443 C 245.489 167.946,265.146 163.443,274.000 164.806 M129.400 175.780 C 126.704 176.580,125.712 177.105,124.297 178.479 C 122.116 180.598,118.863 183.337,115.046 186.269 C 111.649 188.880,111.397 189.183,109.334 193.165 C 106.698 198.254,106.748 198.530,109.800 195.714 C 121.757 184.684,135.814 183.175,145.247 191.908 C 148.890 195.281,150.231 198.353,152.006 207.400 C 153.212 213.548,153.482 214.636,154.387 217.000 C 155.042 218.711,155.815 220.212,156.177 220.471 C 156.751 220.884,161.180 217.610,162.495 215.801 C 163.579 214.308,163.983 213.528,165.144 210.681 C 165.785 209.109,165.718 199.951,165.043 196.800 C 163.047 187.489,157.492 181.768,146.800 178.011 C 146.030 177.741,145.040 177.378,144.600 177.205 C 143.759 176.875,141.872 176.375,138.694 175.641 C 136.293 175.085,131.496 175.157,129.400 175.780 M259.311 176.084 C 257.424 176.706,256.215 177.472,254.311 179.253 C 252.930 180.545,250.094 182.906,248.009 184.501 C 242.512 188.704,239.951 192.085,237.642 198.183 C 237.555 198.412,238.551 197.610,239.854 196.400 C 242.529 193.916,244.098 192.652,245.700 191.689 C 246.305 191.325,246.800 190.886,246.800 190.714 C 246.800 190.541,246.997 190.400,247.238 190.400 C 247.479 190.400,248.154 190.070,248.738 189.666 C 254.159 185.920,264.255 185.310,270.856 188.331 C 277.862 191.536,280.437 195.700,282.851 207.723 C 284.301 214.949,286.225 220.807,287.144 220.797 C 288.851 220.780,294.267 214.906,295.625 211.600 C 296.384 209.752,296.402 198.661,295.651 195.800 C 293.688 188.322,290.136 183.997,283.087 180.500 C 273.264 175.626,265.232 174.134,259.311 176.084 " stroke="none" fill="#fcfcfc" fill-rule="evenodd"></path><path id="path2" d="M166.200 178.800 C 167.506 180.120,168.665 181.200,168.775 181.200 C 168.885 181.200,167.906 180.120,166.600 178.800 C 165.294 177.480,164.135 176.400,164.025 176.400 C 163.915 176.400,164.894 177.480,166.200 178.800 M123.775 178.500 L 122.600 179.800 123.900 178.625 C 124.615 177.979,125.200 177.394,125.200 177.325 C 125.200 177.016,124.870 177.288,123.775 178.500 M98.981 183.700 L 97.400 185.400 99.100 183.819 C 100.681 182.348,100.984 182.000,100.681 182.000 C 100.616 182.000,99.851 182.765,98.981 183.700 M239.986 196.700 L 237.800 199.000 240.100 196.814 C 241.365 195.611,242.400 194.576,242.400 194.514 C 242.400 194.217,242.018 194.563,239.986 196.700 M93.693 198.400 C 93.693 199.170,93.775 199.485,93.876 199.100 C 93.976 198.715,93.976 198.085,93.876 197.700 C 93.775 197.315,93.693 197.630,93.693 198.400 M132.705 235.883 C 133.202 235.979,133.922 235.975,134.305 235.875 C 134.687 235.775,134.280 235.696,133.400 235.701 C 132.520 235.705,132.207 235.787,132.705 235.883 M137.705 235.887 C 138.314 235.979,139.214 235.977,139.705 235.882 C 140.197 235.787,139.700 235.711,138.600 235.714 C 137.500 235.717,137.097 235.795,137.705 235.887 M263.505 235.883 C 264.002 235.979,264.722 235.975,265.105 235.875 C 265.487 235.775,265.080 235.696,264.200 235.701 C 263.320 235.705,263.007 235.787,263.505 235.883 M268.505 235.887 C 269.114 235.979,270.014 235.977,270.505 235.882 C 270.997 235.787,270.500 235.711,269.400 235.714 C 268.300 235.717,267.897 235.795,268.505 235.887 " stroke="none" fill="#d4d4d4" fill-rule="evenodd"></path><path id="path3" d="M132.800 165.202 C 132.200 165.395,132.840 165.437,134.400 165.306 C 135.830 165.186,137.075 165.023,137.167 164.944 C 137.489 164.665,133.788 164.884,132.800 165.202 M140.100 165.087 C 140.705 165.178,141.695 165.178,142.300 165.087 C 142.905 164.995,142.410 164.920,141.200 164.920 C 139.990 164.920,139.495 164.995,140.100 165.087 M265.305 165.087 C 265.914 165.179,266.814 165.177,267.305 165.082 C 267.797 164.987,267.300 164.911,266.200 164.914 C 265.100 164.917,264.697 164.995,265.305 165.087 M270.707 165.090 C 271.426 165.179,272.506 165.177,273.107 165.086 C 273.708 164.995,273.120 164.922,271.800 164.924 C 270.480 164.926,269.988 165.001,270.707 165.090 M128.600 166.019 C 128.042 166.271,128.285 166.307,129.400 166.138 C 130.280 166.004,131.075 165.828,131.167 165.747 C 131.510 165.444,129.368 165.671,128.600 166.019 M145.233 165.744 C 145.325 165.823,145.940 166.008,146.600 166.156 C 147.476 166.352,147.638 166.315,147.200 166.018 C 146.660 165.653,144.832 165.398,145.233 165.744 M259.400 166.000 C 258.381 166.438,259.432 166.438,260.800 166.000 C 261.604 165.743,261.643 165.677,261.000 165.668 C 260.560 165.662,259.840 165.811,259.400 166.000 M125.000 166.800 C 124.496 167.017,124.422 167.144,124.800 167.144 C 125.130 167.144,125.760 166.989,126.200 166.800 C 126.704 166.583,126.778 166.456,126.400 166.456 C 126.070 166.456,125.440 166.611,125.000 166.800 M255.800 166.800 C 255.296 167.017,255.222 167.144,255.600 167.144 C 255.930 167.144,256.560 166.989,257.000 166.800 C 257.504 166.583,257.578 166.456,257.200 166.456 C 256.870 166.456,256.240 166.611,255.800 166.800 M152.000 168.179 C 152.000 168.289,152.540 168.659,153.200 169.000 C 153.860 169.341,154.400 169.531,154.400 169.421 C 154.400 169.311,153.860 168.941,153.200 168.600 C 152.540 168.259,152.000 168.069,152.000 168.179 M156.689 171.230 C 157.178 171.739,157.678 172.055,157.801 171.932 C 157.924 171.809,157.524 171.392,156.912 171.006 L 155.800 170.304 156.689 171.230 M288.000 171.485 C 288.000 171.834,289.599 172.938,289.800 172.728 C 289.867 172.657,289.489 172.277,288.961 171.881 C 288.432 171.486,288.000 171.308,288.000 171.485 M240.200 173.119 C 239.760 173.499,239.138 174.168,238.817 174.605 C 238.497 175.042,238.945 174.770,239.813 174.000 C 240.681 173.230,241.468 172.555,241.562 172.500 C 241.656 172.445,241.568 172.406,241.367 172.413 C 241.165 172.421,240.640 172.738,240.200 173.119 M292.269 174.909 C 294.387 176.613,295.005 176.921,293.400 175.473 C 292.520 174.680,291.651 174.023,291.469 174.015 C 291.287 174.007,291.647 174.409,292.269 174.909 M129.045 175.128 C 128.933 175.308,129.373 175.377,130.021 175.282 C 130.670 175.187,131.200 175.040,131.200 174.955 C 131.200 174.650,129.243 174.807,129.045 175.128 M137.233 174.943 C 137.325 175.022,138.120 175.197,139.000 175.332 C 140.090 175.499,140.409 175.455,140.000 175.195 C 139.453 174.846,136.845 174.609,137.233 174.943 M260.000 175.218 C 259.562 175.515,259.724 175.552,260.600 175.356 C 262.071 175.027,262.390 174.798,261.367 174.806 C 260.945 174.809,260.330 174.995,260.000 175.218 M268.033 174.943 C 268.125 175.021,268.830 175.201,269.600 175.342 C 270.585 175.523,270.822 175.482,270.400 175.206 C 269.858 174.850,267.637 174.603,268.033 174.943 M126.300 176.229 C 124.749 177.070,124.925 177.361,126.500 176.559 C 128.008 175.793,128.275 175.594,127.767 175.616 C 127.565 175.625,126.905 175.901,126.300 176.229 M162.445 175.700 C 162.544 175.755,164.239 177.330,166.212 179.200 L 169.800 182.600 166.409 179.100 C 164.544 177.175,162.849 175.600,162.642 175.600 C 162.436 175.600,162.347 175.645,162.445 175.700 M272.600 176.000 C 273.701 176.473,274.092 176.473,273.800 176.000 C 273.664 175.780,273.158 175.613,272.676 175.628 C 271.831 175.655,271.829 175.669,272.600 176.000 M122.981 178.900 L 121.400 180.600 123.100 179.019 C 124.681 177.548,124.984 177.200,124.681 177.200 C 124.616 177.200,123.851 177.965,122.981 178.900 M253.375 179.300 L 252.200 180.600 253.500 179.425 C 254.215 178.779,254.800 178.194,254.800 178.125 C 254.800 177.816,254.470 178.088,253.375 179.300 M298.809 180.962 C 299.804 182.083,301.124 183.630,301.741 184.400 C 302.359 185.170,302.681 185.427,302.457 184.972 C 302.232 184.516,300.913 182.969,299.524 181.534 C 298.136 180.098,297.814 179.841,298.809 180.962 M233.800 180.635 L 232.600 181.666 234.000 180.763 C 235.796 179.604,235.801 179.600,235.367 179.602 C 235.165 179.603,234.460 180.068,233.800 180.635 M250.575 181.700 L 249.400 183.000 250.700 181.825 C 251.415 181.179,252.000 180.594,252.000 180.525 C 252.000 180.216,251.670 180.488,250.575 181.700 M118.400 182.854 L 116.600 184.485 118.294 183.213 C 119.768 182.107,120.714 181.174,120.324 181.212 C 120.256 181.219,119.390 181.958,118.400 182.854 M98.661 184.370 C 97.417 185.674,96.400 186.874,96.400 187.037 C 96.400 187.200,96.454 187.258,96.520 187.167 C 96.587 187.075,97.694 185.875,98.981 184.500 C 100.269 183.125,101.232 182.000,101.122 182.000 C 101.012 182.000,99.904 183.067,98.661 184.370 M170.837 184.400 C 171.996 186.196,172.000 186.201,171.998 185.767 C 171.997 185.565,171.532 184.860,170.965 184.200 L 169.934 183.000 170.837 184.400 M246.126 185.130 C 243.288 187.275,242.337 188.190,244.400 186.792 C 246.879 185.111,249.325 183.199,248.958 183.230 C 248.761 183.246,247.487 184.101,246.126 185.130 M288.433 183.300 C 288.525 183.355,289.140 183.850,289.800 184.400 L 291.000 185.400 290.030 184.300 C 289.497 183.695,288.882 183.200,288.664 183.200 C 288.445 183.200,288.342 183.245,288.433 183.300 M159.768 185.200 C 161.864 187.643,162.285 188.026,161.304 186.600 C 160.850 185.940,159.971 184.950,159.350 184.400 C 158.601 183.736,158.741 184.004,159.768 185.200 M114.600 185.835 L 113.400 186.866 114.800 185.963 C 116.596 184.804,116.601 184.800,116.167 184.802 C 115.965 184.803,115.260 185.268,114.600 185.835 M228.344 185.500 C 227.193 186.889,226.706 187.600,226.904 187.600 C 227.014 187.600,227.586 186.970,228.173 186.200 C 229.263 184.771,229.395 184.232,228.344 185.500 M125.400 187.219 C 124.842 187.471,125.085 187.507,126.200 187.338 C 127.080 187.204,127.875 187.028,127.967 186.947 C 128.310 186.644,126.168 186.871,125.400 187.219 M134.000 187.200 C 135.368 187.638,136.419 187.638,135.400 187.200 C 134.960 187.011,134.240 186.862,133.800 186.868 C 133.157 186.877,133.196 186.943,134.000 187.200 M256.200 187.200 C 255.181 187.638,256.232 187.638,257.600 187.200 C 258.404 186.943,258.443 186.877,257.800 186.868 C 257.360 186.862,256.640 187.011,256.200 187.200 M264.800 187.200 C 266.168 187.638,267.219 187.638,266.200 187.200 C 265.760 187.011,265.040 186.862,264.600 186.868 C 263.957 186.877,263.996 186.943,264.800 187.200 M273.889 190.830 C 274.378 191.339,274.878 191.655,275.001 191.532 C 275.124 191.409,274.724 190.992,274.112 190.606 L 273.000 189.904 273.889 190.830 M94.240 192.440 C 94.093 193.357,94.052 194.185,94.147 194.280 C 94.242 194.376,94.446 193.710,94.600 192.800 C 94.754 191.890,94.796 191.062,94.693 190.960 C 94.590 190.857,94.387 191.523,94.240 192.440 M145.400 192.800 C 146.483 193.900,147.460 194.800,147.570 194.800 C 147.680 194.800,146.883 193.900,145.800 192.800 C 144.717 191.700,143.740 190.800,143.630 190.800 C 143.520 190.800,144.317 191.700,145.400 192.800 M174.856 192.400 C 174.856 192.730,175.011 193.360,175.200 193.800 C 175.417 194.304,175.544 194.378,175.544 194.000 C 175.544 193.670,175.389 193.040,175.200 192.600 C 174.983 192.096,174.856 192.022,174.856 192.400 M224.729 194.700 C 224.633 195.745,224.669 197.680,224.807 199.000 C 225.015 200.987,225.063 200.660,225.087 197.100 C 225.118 192.461,225.003 191.689,224.729 194.700 M242.770 194.268 L 241.800 195.336 242.887 194.568 C 243.486 194.146,243.981 193.665,243.987 193.500 C 244.008 193.007,243.789 193.146,242.770 194.268 M109.422 196.482 C 106.977 198.735,106.352 199.150,106.562 198.382 C 106.807 197.483,106.775 197.495,106.189 198.524 C 104.945 200.709,105.840 200.268,109.377 196.953 C 111.345 195.109,112.863 193.600,112.752 193.600 C 112.641 193.600,111.142 194.897,109.422 196.482 M306.146 197.400 C 306.147 199.600,306.214 200.449,306.295 199.287 C 306.376 198.124,306.376 196.324,306.293 195.287 C 306.211 194.249,306.145 195.200,306.146 197.400 M165.701 199.000 C 165.705 199.880,165.787 200.193,165.883 199.695 C 165.979 199.198,165.975 198.478,165.875 198.095 C 165.775 197.713,165.696 198.120,165.701 199.000 M175.000 201.600 C 174.844 202.947,174.801 204.134,174.905 204.238 C 175.009 204.342,175.219 203.322,175.371 201.971 C 175.524 200.621,175.567 199.434,175.467 199.333 C 175.366 199.233,175.156 200.253,175.000 201.600 M296.950 204.600 C 296.951 207.020,297.016 207.958,297.096 206.685 C 297.176 205.412,297.175 203.432,297.094 202.285 C 297.014 201.138,296.949 202.180,296.950 204.600 M166.148 204.800 C 166.148 207.110,166.214 208.055,166.295 206.900 C 166.376 205.745,166.376 203.855,166.295 202.700 C 166.214 201.545,166.148 202.490,166.148 204.800 M94.493 202.800 C 94.493 203.570,94.575 203.885,94.676 203.500 C 94.776 203.115,94.776 202.485,94.676 202.100 C 94.575 201.715,94.493 202.030,94.493 202.800 M281.256 203.200 C 281.256 203.530,281.411 204.160,281.600 204.600 C 281.817 205.104,281.944 205.178,281.944 204.800 C 281.944 204.470,281.789 203.840,281.600 203.400 C 281.383 202.896,281.256 202.822,281.256 203.200 M225.444 204.200 C 225.773 205.671,226.002 205.990,225.994 204.967 C 225.991 204.545,225.805 203.930,225.582 203.600 C 225.285 203.162,225.248 203.324,225.444 204.200 M151.073 206.000 C 151.204 206.990,151.376 207.875,151.456 207.967 C 151.757 208.314,151.528 205.764,151.190 205.000 C 150.953 204.466,150.914 204.798,151.073 206.000 M305.301 206.200 C 305.305 207.080,305.387 207.393,305.483 206.895 C 305.579 206.398,305.575 205.678,305.475 205.295 C 305.375 204.913,305.296 205.320,305.301 206.200 M174.256 207.284 C 174.121 207.788,174.027 208.560,174.046 209.000 C 174.065 209.440,174.245 209.098,174.446 208.240 C 174.836 206.578,174.670 205.740,174.256 207.284 M282.068 207.200 C 282.088 208.239,282.718 209.946,282.732 209.000 C 282.738 208.560,282.589 207.840,282.400 207.400 C 282.189 206.910,282.061 206.832,282.068 207.200 M282.868 211.200 C 282.888 212.239,283.518 213.946,283.532 213.000 C 283.538 212.560,283.389 211.840,283.200 211.400 C 282.989 210.910,282.861 210.832,282.868 211.200 M152.806 214.233 C 152.809 214.655,152.995 215.270,153.218 215.600 C 153.515 216.038,153.552 215.876,153.356 215.000 C 153.027 213.529,152.798 213.210,152.806 214.233 M293.999 215.300 C 293.410 216.104,293.313 216.384,293.745 216.033 C 294.401 215.500,295.393 214.000,295.089 214.000 C 295.013 214.000,294.522 214.585,293.999 215.300 M230.200 216.400 C 230.541 217.060,230.911 217.600,231.021 217.600 C 231.131 217.600,230.941 217.060,230.600 216.400 C 230.259 215.740,229.889 215.200,229.779 215.200 C 229.669 215.200,229.859 215.740,230.200 216.400 M161.375 217.700 L 160.200 219.000 161.500 217.825 C 162.712 216.730,162.984 216.400,162.675 216.400 C 162.606 216.400,162.021 216.985,161.375 217.700 M171.590 217.400 C 171.376 217.950,171.009 218.895,170.775 219.500 C 170.541 220.105,170.514 220.420,170.715 220.200 C 171.186 219.683,172.458 216.400,172.187 216.400 C 172.073 216.400,171.805 216.850,171.590 217.400 M100.015 217.400 C 100.017 217.620,100.386 218.250,100.836 218.800 C 101.379 219.464,101.515 219.531,101.240 219.000 C 100.566 217.695,100.012 216.972,100.015 217.400 M232.000 219.361 C 232.000 219.778,234.323 223.105,234.834 223.421 C 235.158 223.621,233.665 221.315,232.123 219.233 C 232.056 219.142,232.000 219.199,232.000 219.361 M168.395 223.608 C 167.686 224.712,166.093 226.535,164.853 227.659 C 163.230 229.132,163.073 229.345,164.293 228.424 C 166.165 227.008,168.216 224.731,169.323 222.837 C 170.485 220.848,169.802 221.415,168.395 223.608 M237.000 226.000 C 238.083 227.100,239.047 228.000,239.141 228.000 C 239.480 228.000,235.791 224.080,235.415 224.041 C 235.203 224.018,235.917 224.900,237.000 226.000 M106.000 225.800 C 106.746 226.570,107.447 227.200,107.557 227.200 C 107.667 227.200,107.146 226.570,106.400 225.800 C 105.654 225.030,104.953 224.400,104.843 224.400 C 104.733 224.400,105.254 225.030,106.000 225.800 M295.800 227.486 C 294.480 228.724,293.940 229.362,294.600 228.903 C 295.751 228.104,298.748 225.181,298.378 225.218 C 298.280 225.228,297.120 226.249,295.800 227.486 M161.000 230.400 C 160.340 230.837,159.980 231.192,160.200 231.188 C 160.601 231.182,162.776 229.623,162.400 229.612 C 162.290 229.608,161.660 229.963,161.000 230.400 M150.800 234.000 C 149.996 234.257,149.957 234.323,150.600 234.332 C 151.040 234.338,151.760 234.189,152.200 234.000 C 153.219 233.562,152.168 233.562,150.800 234.000 M251.600 233.982 C 251.930 234.205,252.545 234.391,252.967 234.394 C 253.990 234.402,253.671 234.173,252.200 233.844 C 251.324 233.648,251.162 233.685,251.600 233.982 M281.600 234.000 C 280.796 234.257,280.757 234.323,281.400 234.332 C 281.840 234.338,282.560 234.189,283.000 234.000 C 284.019 233.562,282.968 233.562,281.600 234.000 M125.905 235.083 C 126.402 235.179,127.122 235.175,127.505 235.075 C 127.887 234.975,127.480 234.896,126.600 234.901 C 125.720 234.905,125.407 234.987,125.905 235.083 M145.105 235.083 C 145.602 235.179,146.322 235.175,146.705 235.075 C 147.087 234.975,146.680 234.896,145.800 234.901 C 144.920 234.905,144.607 234.987,145.105 235.083 M256.700 235.082 C 257.195 235.178,258.005 235.178,258.500 235.082 C 258.995 234.987,258.590 234.909,257.600 234.909 C 256.610 234.909,256.205 234.987,256.700 235.082 M275.905 235.083 C 276.402 235.179,277.122 235.175,277.505 235.075 C 277.887 234.975,277.480 234.896,276.600 234.901 C 275.720 234.905,275.407 234.987,275.905 235.083 M129.900 235.482 C 130.395 235.578,131.205 235.578,131.700 235.482 C 132.195 235.387,131.790 235.309,130.800 235.309 C 129.810 235.309,129.405 235.387,129.900 235.482 M140.300 235.482 C 140.795 235.578,141.605 235.578,142.100 235.482 C 142.595 235.387,142.190 235.309,141.200 235.309 C 140.210 235.309,139.805 235.387,140.300 235.482 M260.905 235.487 C 261.514 235.579,262.414 235.577,262.905 235.482 C 263.397 235.387,262.900 235.311,261.800 235.314 C 260.700 235.317,260.297 235.395,260.905 235.487 M271.300 235.476 C 271.685 235.576,272.315 235.576,272.700 235.476 C 273.085 235.375,272.770 235.293,272.000 235.293 C 271.230 235.293,270.915 235.375,271.300 235.476 " stroke="none" fill="#cccccc" fill-rule="evenodd"></path><path id="path4" d="M136.400 164.409 C 135.477 164.569,136.141 164.670,138.346 164.705 C 140.186 164.735,141.626 164.702,141.546 164.633 C 141.206 164.339,137.689 164.186,136.400 164.409 M267.500 164.693 C 268.435 164.777,269.965 164.777,270.900 164.693 C 271.835 164.609,271.070 164.540,269.200 164.540 C 267.330 164.540,266.565 164.609,267.500 164.693 M131.000 165.200 C 129.981 165.638,131.032 165.638,132.400 165.200 C 133.204 164.943,133.243 164.877,132.600 164.868 C 132.160 164.862,131.440 165.011,131.000 165.200 M144.200 165.200 C 144.640 165.389,145.360 165.538,145.800 165.532 C 146.443 165.523,146.404 165.457,145.600 165.200 C 144.232 164.762,143.181 164.762,144.200 165.200 M261.600 165.218 C 261.162 165.515,261.324 165.552,262.200 165.356 C 263.671 165.027,263.990 164.798,262.967 164.806 C 262.545 164.809,261.930 164.995,261.600 165.218 M127.000 166.000 C 126.496 166.217,126.422 166.344,126.800 166.344 C 127.130 166.344,127.760 166.189,128.200 166.000 C 128.704 165.783,128.778 165.656,128.400 165.656 C 128.070 165.656,127.440 165.811,127.000 166.000 M254.200 166.800 C 253.696 167.017,253.622 167.144,254.000 167.144 C 254.330 167.144,254.960 166.989,255.400 166.800 C 255.904 166.583,255.978 166.456,255.600 166.456 C 255.270 166.456,254.640 166.611,254.200 166.800 M283.800 168.282 C 284.020 168.492,285.370 169.425,286.800 170.356 C 288.430 171.418,288.910 171.630,288.086 170.925 C 286.857 169.872,282.928 167.450,283.800 168.282 M113.400 170.378 C 112.520 170.795,111.913 171.150,112.051 171.168 C 112.440 171.218,115.200 170.014,115.200 169.795 C 115.200 169.527,115.199 169.527,113.400 170.378 M129.000 175.600 C 128.496 175.817,128.422 175.944,128.800 175.944 C 129.130 175.944,129.760 175.789,130.200 175.600 C 130.704 175.383,130.778 175.256,130.400 175.256 C 130.070 175.256,129.440 175.411,129.000 175.600 M138.200 175.581 C 138.968 175.929,141.110 176.156,140.767 175.853 C 140.675 175.772,139.880 175.596,139.000 175.462 C 137.885 175.293,137.642 175.329,138.200 175.581 M259.800 175.600 C 259.296 175.817,259.222 175.944,259.600 175.944 C 259.930 175.944,260.560 175.789,261.000 175.600 C 261.504 175.383,261.578 175.256,261.200 175.256 C 260.870 175.256,260.240 175.411,259.800 175.600 M106.249 177.015 C 106.112 177.373,106.015 177.966,106.034 178.333 C 106.053 178.700,106.227 178.469,106.421 177.820 C 106.798 176.558,106.665 175.933,106.249 177.015 M236.000 178.732 C 235.094 179.615,235.083 179.664,235.878 179.251 C 236.360 179.001,236.873 178.605,237.018 178.371 C 237.510 177.575,237.002 177.755,236.000 178.732 M121.478 180.613 C 120.860 181.156,120.514 181.600,120.708 181.600 C 120.902 181.600,121.483 181.150,122.000 180.600 C 123.195 179.328,122.931 179.334,121.478 180.613 M250.896 181.827 C 249.518 183.022,248.528 184.000,248.696 183.999 C 248.863 183.999,250.080 183.017,251.400 181.818 C 254.501 178.999,254.146 179.006,250.896 181.827 M153.200 180.820 C 154.587 181.761,155.378 182.035,154.400 181.236 C 153.850 180.786,153.220 180.417,153.000 180.415 C 152.780 180.413,152.870 180.596,153.200 180.820 M284.400 180.979 C 284.400 181.089,284.940 181.459,285.600 181.800 C 286.260 182.141,286.800 182.331,286.800 182.221 C 286.800 182.111,286.260 181.741,285.600 181.400 C 284.940 181.059,284.400 180.869,284.400 180.979 M98.778 183.500 L 97.400 185.000 98.900 183.622 C 100.296 182.338,100.584 182.000,100.278 182.000 C 100.212 182.000,99.537 182.675,98.778 183.500 M157.045 183.213 C 157.900 183.880,159.291 185.185,160.135 186.113 C 161.586 187.708,161.612 187.720,160.606 186.325 C 159.566 184.882,156.348 182.000,155.778 182.000 C 155.619 182.000,156.190 182.546,157.045 183.213 M117.585 184.029 L 116.200 185.258 117.700 184.181 C 119.026 183.230,119.457 182.800,119.085 182.800 C 119.022 182.800,118.347 183.353,117.585 184.029 M171.375 184.532 C 171.991 185.339,172.576 186.000,172.675 186.000 C 172.953 186.000,171.221 183.660,170.709 183.344 C 170.459 183.189,170.759 183.724,171.375 184.532 M114.385 186.432 L 113.000 187.663 114.288 186.813 C 115.430 186.059,116.293 185.200,115.908 185.200 C 115.832 185.200,115.147 185.754,114.385 186.432 M244.500 186.837 C 243.345 187.712,242.400 188.511,242.400 188.613 C 242.400 188.865,246.341 186.018,246.623 185.563 C 246.971 185.000,246.750 185.132,244.500 186.837 M128.100 186.696 C 129.365 186.775,131.435 186.775,132.700 186.696 C 133.965 186.616,132.930 186.551,130.400 186.551 C 127.870 186.551,126.835 186.616,128.100 186.696 M258.900 186.696 C 260.165 186.775,262.235 186.775,263.500 186.696 C 264.765 186.616,263.730 186.551,261.200 186.551 C 258.670 186.551,257.635 186.616,258.900 186.696 M292.185 187.900 C 292.802 188.835,293.383 189.600,293.476 189.600 C 293.764 189.600,292.233 187.166,291.632 186.669 C 291.320 186.411,291.568 186.965,292.185 187.900 M145.792 192.800 C 147.094 194.230,148.238 195.490,148.334 195.600 C 148.430 195.710,148.318 195.440,148.084 195.000 C 147.851 194.560,146.707 193.300,145.542 192.200 L 143.424 190.200 145.792 192.800 M93.849 192.215 C 93.712 192.573,93.618 193.256,93.641 193.733 C 93.667 194.281,93.803 194.086,94.010 193.203 C 94.360 191.716,94.265 191.133,93.849 192.215 M175.496 194.246 C 175.612 195.321,175.772 196.275,175.853 196.367 C 176.172 196.729,175.965 193.365,175.637 192.846 C 175.422 192.507,175.368 193.051,175.496 194.246 M111.878 193.813 C 111.260 194.356,110.914 194.800,111.108 194.800 C 111.302 194.800,111.883 194.350,112.400 193.800 C 113.595 192.528,113.331 192.534,111.878 193.813 M224.253 194.436 C 224.114 195.131,224.024 196.442,224.053 197.350 C 224.091 198.569,224.190 198.270,224.428 196.209 C 224.770 193.258,224.677 192.316,224.253 194.436 M295.256 194.400 C 295.256 194.730,295.411 195.360,295.600 195.800 C 295.817 196.304,295.944 196.378,295.944 196.000 C 295.944 195.670,295.789 195.040,295.600 194.600 C 295.383 194.096,295.256 194.022,295.256 194.400 M239.586 196.700 L 237.400 199.000 239.700 196.814 C 240.965 195.611,242.000 194.576,242.000 194.514 C 242.000 194.217,241.618 194.563,239.586 196.700 M306.534 197.200 C 306.534 198.850,306.605 199.525,306.691 198.700 C 306.778 197.875,306.778 196.525,306.691 195.700 C 306.605 194.875,306.534 195.550,306.534 197.200 M108.815 196.584 C 108.077 197.346,107.341 197.887,107.179 197.787 C 106.905 197.618,106.248 198.791,106.491 199.016 C 106.551 199.071,107.500 198.237,108.600 197.162 C 109.700 196.087,110.500 195.205,110.378 195.203 C 110.257 195.202,109.553 195.823,108.815 196.584 M296.197 203.913 C 296.199 207.495,296.317 210.015,296.460 209.513 C 296.806 208.298,296.811 201.464,296.468 199.200 C 296.308 198.149,296.196 200.109,296.197 203.913 M175.670 199.850 C 175.631 200.758,175.511 202.108,175.401 202.850 L 175.203 204.200 175.623 202.862 C 175.853 202.127,175.974 200.777,175.891 199.862 L 175.740 198.200 175.670 199.850 M93.628 200.633 C 93.644 201.275,93.816 202.160,94.010 202.600 C 94.247 203.134,94.286 202.802,94.127 201.600 C 93.846 199.480,93.588 198.980,93.628 200.633 M165.744 204.800 C 165.744 206.890,165.812 207.745,165.894 206.700 C 165.976 205.655,165.976 203.945,165.894 202.900 C 165.812 201.855,165.744 202.710,165.744 204.800 M281.256 201.600 C 281.256 201.930,281.411 202.560,281.600 203.000 C 281.817 203.504,281.944 203.578,281.944 203.200 C 281.944 202.870,281.789 202.240,281.600 201.800 C 281.383 201.296,281.256 201.222,281.256 201.600 M224.800 203.376 C 224.800 203.913,224.947 204.444,225.128 204.555 C 225.308 204.667,225.377 204.227,225.282 203.579 C 225.072 202.149,224.800 202.035,224.800 203.376 M150.856 203.200 C 150.856 203.530,151.011 204.160,151.200 204.600 C 151.417 205.104,151.544 205.178,151.544 204.800 C 151.544 204.470,151.389 203.840,151.200 203.400 C 150.983 202.896,150.856 202.822,150.856 203.200 M305.855 204.655 C 305.713 205.686,305.674 206.608,305.769 206.702 C 305.863 206.796,306.065 206.039,306.218 205.018 C 306.371 203.998,306.410 203.076,306.304 202.971 C 306.198 202.865,305.996 203.623,305.855 204.655 M94.428 205.076 C 94.413 205.558,94.580 206.064,94.800 206.200 C 95.273 206.492,95.273 206.101,94.800 205.000 C 94.469 204.229,94.455 204.231,94.428 205.076 M174.854 206.400 C 174.819 206.950,174.696 207.850,174.583 208.400 L 174.377 209.400 174.807 208.415 C 175.043 207.874,175.165 206.974,175.078 206.415 L 174.920 205.400 174.854 206.400 M151.656 207.200 C 151.656 207.530,151.811 208.160,152.000 208.600 C 152.217 209.104,152.344 209.178,152.344 208.800 C 152.344 208.470,152.189 207.840,152.000 207.400 C 151.783 206.896,151.656 206.822,151.656 207.200 M305.029 209.429 C 304.881 210.015,304.838 210.572,304.932 210.666 C 305.027 210.760,305.224 210.358,305.371 209.771 C 305.519 209.185,305.562 208.628,305.468 208.534 C 305.373 208.440,305.176 208.842,305.029 209.429 M174.046 210.467 C 174.021 210.834,173.896 211.464,173.770 211.867 C 173.552 212.562,173.563 212.563,173.997 211.887 C 174.248 211.496,174.373 210.866,174.273 210.487 C 174.111 209.868,174.088 209.866,174.046 210.467 M152.456 211.200 C 152.456 211.530,152.611 212.160,152.800 212.600 C 153.017 213.104,153.144 213.178,153.144 212.800 C 153.144 212.470,152.989 211.840,152.800 211.400 C 152.583 210.896,152.456 210.822,152.456 211.200 M290.387 218.513 C 289.830 219.001,288.930 219.720,288.387 220.112 C 287.760 220.563,287.692 220.687,288.200 220.449 C 289.253 219.958,292.212 217.596,291.755 217.613 C 291.560 217.620,290.944 218.025,290.387 218.513 M100.349 218.600 C 100.565 219.040,101.034 219.760,101.393 220.200 L 102.044 221.000 101.651 220.200 C 101.435 219.760,100.966 219.040,100.607 218.600 L 99.956 217.800 100.349 218.600 M158.614 219.246 C 156.513 220.826,156.316 221.087,157.927 220.162 C 159.062 219.510,160.847 217.945,160.362 218.027 C 160.273 218.042,159.486 218.591,158.614 219.246 M102.800 222.400 C 103.270 223.060,103.744 223.600,103.854 223.600 C 103.964 223.600,103.670 223.060,103.200 222.400 C 102.730 221.740,102.256 221.200,102.146 221.200 C 102.036 221.200,102.330 221.740,102.800 222.400 M169.052 223.265 C 168.453 224.180,168.253 224.688,168.608 224.394 C 169.212 223.892,170.585 221.600,170.281 221.600 C 170.205 221.600,169.652 222.349,169.052 223.265 M234.697 223.800 C 235.377 224.680,236.708 226.120,237.656 227.000 C 238.889 228.144,238.708 227.860,237.020 226.000 C 233.767 222.417,233.258 221.935,234.697 223.800 M296.684 226.881 C 294.970 228.639,294.070 229.714,294.684 229.271 C 296.142 228.218,300.594 223.459,299.949 223.642 C 299.867 223.666,298.398 225.123,296.684 226.881 M105.800 226.000 C 106.883 227.100,107.860 228.000,107.970 228.000 C 108.080 228.000,107.283 227.100,106.200 226.000 C 105.117 224.900,104.140 224.000,104.030 224.000 C 103.920 224.000,104.717 224.900,105.800 226.000 M165.200 227.691 C 163.770 229.041,163.140 229.768,163.800 229.306 C 164.961 228.494,168.348 225.182,167.981 225.218 C 167.882 225.227,166.630 226.340,165.200 227.691 M152.600 234.000 C 152.096 234.217,152.022 234.344,152.400 234.344 C 152.730 234.344,153.360 234.189,153.800 234.000 C 154.304 233.783,154.378 233.656,154.000 233.656 C 153.670 233.656,153.040 233.811,152.600 234.000 M283.400 234.000 C 282.896 234.217,282.822 234.344,283.200 234.344 C 283.530 234.344,284.160 234.189,284.600 234.000 C 285.104 233.783,285.178 233.656,284.800 233.656 C 284.470 233.656,283.840 233.811,283.400 234.000 M122.600 234.800 C 123.040 234.989,123.670 235.144,124.000 235.144 C 124.378 235.144,124.304 235.017,123.800 234.800 C 123.360 234.611,122.730 234.456,122.400 234.456 C 122.022 234.456,122.096 234.583,122.600 234.800 M253.400 234.800 C 253.840 234.989,254.470 235.144,254.800 235.144 C 255.178 235.144,255.104 235.017,254.600 234.800 C 254.160 234.611,253.530 234.456,253.200 234.456 C 252.822 234.456,252.896 234.583,253.400 234.800 M279.600 234.800 C 278.796 235.057,278.757 235.123,279.400 235.132 C 279.840 235.138,280.560 234.989,281.000 234.800 C 282.019 234.362,280.968 234.362,279.600 234.800 M142.200 235.600 L 140.200 235.874 142.000 235.890 C 142.990 235.898,144.340 235.768,145.000 235.600 C 146.577 235.199,145.125 235.199,142.200 235.600 M258.200 235.589 C 259.416 235.909,263.073 236.122,262.767 235.855 C 262.675 235.775,261.340 235.611,259.800 235.491 C 258.102 235.359,257.472 235.398,258.200 235.589 M273.000 235.600 L 271.000 235.874 272.800 235.890 C 273.790 235.898,275.140 235.768,275.800 235.600 C 277.377 235.199,275.925 235.199,273.000 235.600 M129.500 235.882 C 129.995 235.978,130.805 235.978,131.300 235.882 C 131.795 235.787,131.390 235.709,130.400 235.709 C 129.410 235.709,129.005 235.787,129.500 235.882 " stroke="none" fill="#dcdcdc" fill-rule="evenodd"></path></g></svg>